Coordinates
version=1
nRows=16
nColumns=40
inDegrees=yes

Units are S.I. units (second, meters, Newtons, ...)
If the header above contains a line with 'inDegrees', this indicates whether rotational values are in degrees (yes) or radians (no).

endheader
time	pelvis_tilt	pelvis_list	pelvis_rotation	pelvis_tx	pelvis_ty	pelvis_tz	hip_flexion_r	hip_adduction_r	hip_rotation_r	knee_angle_r	knee_angle_r_beta	ankle_angle_r	subtalar_angle_r	mtp_angle_r	hip_flexion_l	hip_adduction_l	hip_rotation_l	knee_angle_l	knee_angle_l_beta	ankle_angle_l	subtalar_angle_l	mtp_angle_l	lumbar_extension	lumbar_bending	lumbar_rotation	arm_flex_r	arm_add_r	arm_rot_r	elbow_flex_r	pro_sup_r	wrist_flex_r	wrist_dev_r	arm_flex_l	arm_add_l	arm_rot_l	elbow_flex_l	pro_sup_l	wrist_flex_l	wrist_dev_l
      3.88000000	    -39.35181614	      1.61597350	      1.89536725	      0.13206822	      0.65263277	     -1.15985637	     96.24334163	    -45.33385279	     -9.56603214	     80.84882481	      1.41107819	     17.29569850	      7.82640695	      0.00000000	     94.55059907	    -38.28470116	     -8.99936929	     73.95313576	      1.29072571	     14.00251127	     17.43258339	      0.00000000	      0.00000000	      0.00000000	      0.00000000	     43.71644702	    -15.09099665	     43.71644702	     75.07563570	     44.99956287	      0.00000000	      0.00000000	     43.71644702	    -15.09099665	     43.71644702	     75.07563570	     44.99956287	      0.00000000	      0.00000000
      3.88500000	    -39.25826080	      1.61945066	      1.88989911	      0.13241856	      0.65131750	     -1.15952683	     96.37897528	    -45.38441379	     -9.39917331	     81.16954924	      1.41667589	     17.45110700	      7.75147848	      0.00000000	     94.66016481	    -38.42074539	     -8.89625018	     74.23146993	      1.29558356	     14.10474392	     17.51568015	      0.00000000	      0.00000000	      0.00000000	      0.00000000	     43.72513452	    -15.09001983	     43.72513452	     75.07418893	     44.99958067	      0.00000000	      0.00000000	     43.72513452	    -15.09001983	     43.72513452	     75.07418893	     44.99958067	      0.00000000	      0.00000000
      3.89000000	    -39.29264603	      1.62251367	      1.91757071	      0.13262986	      0.64959521	     -1.15930822	     96.70288429	    -45.46516432	     -9.16051727	     81.51742127	      1.42274740	     17.63063743	      7.82285827	      0.00000000	     94.94503595	    -38.50537087	     -8.73128269	     74.55433567	      1.30121863	     14.25312059	     17.67660578	      0.00000000	      0.00000000	      0.00000000	      0.00000000	     43.73360162	    -15.08907100	     43.73360162	     75.07279335	     44.99959757	      0.00000000	      0.00000000	     43.73360162	    -15.08907100	     43.73360162	     75.07279335	     44.99959757	      0.00000000	      0.00000000
      3.89500000	    -39.36637845	      1.63071071	      1.93399167	      0.13279195	      0.64774982	     -1.15902787	     97.09896801	    -45.52999304	     -8.90407906	     81.89145575	      1.42927553	     17.80244792	      7.87154010	      0.00000000	     95.27009011	    -38.59606651	     -8.55825992	     74.85964123	      1.30654722	     14.39081814	     17.80107458	      0.00000000	      0.00000000	      0.00000000	      0.00000000	     43.74213699	    -15.08811762	     43.74213699	     75.07140058	     44.99961415	      0.00000000	      0.00000000	     43.74213699	    -15.08811762	     43.74213699	     75.07140058	     44.99961415	      0.00000000	      0.00000000
      3.90000000	    -39.43446387	      1.64828747	      1.94672595	      0.13295083	      0.64596185	     -1.15876483	     97.48244024	    -45.58483723	     -8.64231529	     82.23311495	      1.43523861	     17.92709854	      7.89505846	      0.00000000	     95.57903117	    -38.68697737	     -8.40710365	     75.16796189	      1.31192843	     14.49299091	     17.87920341	      0.00000000	      0.00000000	      0.00000000	      0.00000000	     43.75077908	    -15.08715585	     43.75077908	     75.07000656	     44.99963041	      0.00000000	      0.00000000	     43.75077908	    -15.08715585	     43.75077908	     75.07000656	     44.99963041	      0.00000000	      0.00000000
      3.90500000	    -39.65757862	      1.75881481	      1.94188702	      0.13290391	      0.64364904	     -1.15831787	     98.23681328	    -45.57239342	     -8.13501667	     82.65389932	      1.44258268	     18.02839825	      7.81824349	      0.00000000	     96.00995461	    -38.80649139	     -8.35237188	     75.49624254	      1.31765801	     14.53981302	     17.83890668	      0.00000000	      0.00000000	      0.00000000	      0.00000000	     43.76244286	    -15.08587148	     43.76244286	     75.06817538	     44.99965205	      0.00000000	      0.00000000	     43.76244286	    -15.08587148	     43.76244286	     75.06817538	     44.99965205	      0.00000000	      0.00000000
      3.91000000	    -39.69788352	      1.81491546	      1.92667089	      0.13308212	      0.64190097	     -1.15793857	     98.64090415	    -45.58739348	     -7.81627793	     83.00816324	      1.44876575	     18.16744413	      7.81290979	      0.00000000	     96.24913526	    -38.94224855	     -8.26163792	     75.79765509	      1.32291865	     14.65933201	     17.94411918	      0.00000000	      0.00000000	      0.00000000	      0.00000000	     43.77883048	    -15.08407258	     43.77883048	     75.06563214	     44.99968087	      0.00000000	      0.00000000	     43.77883048	    -15.08407258	     43.77883048	     75.06563214	     44.99968087	      0.00000000	      0.00000000
      3.91500000	    -39.76766993	      1.80815809	      1.97696537	      0.13321987	      0.64004640	     -1.15782660	     99.02300947	    -45.69693462	     -7.57545684	     83.36167619	      1.45493572	     18.29761989	      7.83499437	      0.00000000	     96.60280700	    -38.97684783	     -8.06501997	     76.12498732	      1.32863167	     14.74190118	     17.95679235	      0.00000000	      0.00000000	      0.00000000	      0.00000000	     43.79777370	    -15.08200703	     43.79777370	     75.06275891	     44.99971148	      0.00000000	      0.00000000	     43.79777370	    -15.08200703	     43.79777370	     75.06275891	     44.99971148	      0.00000000	      0.00000000
      3.92000000	    -39.64853297	      1.82555675	      1.85134567	      0.13357044	      0.63866238	     -1.15726370	     99.14328242	    -45.61798692	     -7.40700549	     83.69104793	      1.46068434	     18.42807814	      7.88469253	      0.00000000	     96.70471958	    -39.27284565	     -7.93865686	     76.42708537	      1.33390428	     14.90905048	     18.25249351	      0.00000000	      0.00000000	      0.00000000	      0.00000000	     43.81152806	    -15.08052913	     43.81152806	     75.06076797	     44.99973092	      0.00000000	      0.00000000	     43.81152806	    -15.08052913	     43.81152806	     75.06076797	     44.99973092	      0.00000000	      0.00000000
      3.92500000	    -39.80125733	      1.88601822	      1.92471889	      0.13356938	      0.63657508	     -1.15710993	     99.73656769	    -45.71434853	     -7.00263597	     84.06894928	      1.46727996	     18.56771961	      7.87660370	      0.00000000	     97.08631495	    -39.26533233	     -7.81188763	     76.73375255	      1.33925663	     14.97278180	     18.17955306	      0.00000000	      0.00000000	      0.00000000	      0.00000000	     43.83467980	    -15.07804736	     43.83467980	     75.05744285	     44.99976266	      0.00000000	      0.00000000	     43.83467980	    -15.07804736	     43.83467980	     75.05744285	     44.99976266	      0.00000000	      0.00000000
      3.93000000	    -39.63889625	      1.95857329	      1.84593434	      0.13400851	      0.63535447	     -1.15659845	     99.86642962	    -45.69427905	     -6.76466440	     84.39270872	      1.47293063	     18.70278541	      7.93451544	      0.00000000	     97.05388731	    -39.50888784	     -7.80135045	     77.01935129	      1.34424127	     15.17986909	     18.45115074	      0.00000000	      0.00000000	      0.00000000	      0.00000000	     43.85207185	    -15.07621707	     43.85207185	     75.05508771	     44.99978278	      0.00000000	      0.00000000	     43.85207185	    -15.07621707	     43.85207185	     75.05508771	     44.99978278	      0.00000000	      0.00000000
      3.93500000	    -39.88470888	      1.93073199	      1.94536986	      0.13384845	      0.63296227	     -1.15663169	    100.50692552	    -45.81248348	     -6.43848587	     84.77875819	      1.47966847	     18.80480446	      7.85472343	      0.00000000	     97.67235088	    -39.42996120	     -7.48450763	     77.35958392	      1.35017945	     15.18457568	     18.29532957	      0.00000000	      0.00000000	      0.00000000	      0.00000000	     43.87256682	    -15.07405581	     43.87256682	     75.05228897	     44.99980732	      0.00000000	      0.00000000	     43.87256682	    -15.07405581	     43.87256682	     75.05228897	     44.99980732	      0.00000000	      0.00000000
      3.94000000	    -39.91593845	      1.92258785	      1.97541148	      0.13396052	      0.63120090	     -1.15648584	    100.83976045	    -45.88614046	     -6.20488740	     85.12050515	      1.48563308	     18.95722237	      7.86471491	      0.00000000	     97.98700671	    -39.47176795	     -7.26994470	     77.66903278	      1.35558035	     15.28025295	     18.31254490	      0.00000000	      0.00000000	      0.00000000	      0.00000000	     43.89400407	    -15.07182528	     43.89400407	     75.04948526	     44.99982985	      0.00000000	      0.00000000	     43.89400407	    -15.07182528	     43.89400407	     75.04948526	     44.99982985	      0.00000000	      0.00000000
      3.94500000	    -39.91713469	      1.95904447	      1.92895784	      0.13416212	      0.62950238	     -1.15613457	    101.17366166	    -45.86622703	     -5.91669007	     85.46093451	      1.49157469	     19.05608567	      7.86713421	      0.00000000	     98.21891026	    -39.62261377	     -7.12651898	     77.98426507	      1.36108219	     15.41121863	     18.39471591	      0.00000000	      0.00000000	      0.00000000	      0.00000000	     43.91997153	    -15.06915875	     43.91997153	     75.04622984	     44.99985388	      0.00000000	      0.00000000	     43.91997153	    -15.06915875	     43.91997153	     75.04622984	     44.99985388	      0.00000000	      0.00000000
      3.95000000	    -39.93799531	      1.95778728	      1.95319598	      0.13432290	      0.62769811	     -1.15599482	    101.51710117	    -45.94731427	     -5.67072359	     85.82179543	      1.49787290	     19.18095337	      7.91027004	      0.00000000	     98.52333588	    -39.67219717	     -6.91777388	     78.31016571	      1.36677023	     15.52648396	     18.42382501	      0.00000000	      0.00000000	      0.00000000	      0.00000000	     43.93645072	    -15.06748870	     43.93645072	     75.04424618	     44.99986758	      0.00000000	      0.00000000	     43.93645072	    -15.06748870	     43.93645072	     75.04424618	     44.99986758	      0.00000000	      0.00000000
      3.95500000	    -39.93049106	      1.98453099	      1.89836574	      0.13448045	      0.62610531	     -1.15564669	    101.79368628	    -45.90166626	     -5.41800788	     86.11933126	      1.50306588	     19.31241533	      7.94293458	      0.00000000	     98.75505841	    -39.81386111	     -6.73910160	     78.60502181	      1.37191644	     15.65202827	     18.54762604	      0.00000000	      0.00000000	      0.00000000	      0.00000000	     43.95346639	    -15.06578781	     43.95346639	     75.04228807	     44.99987985	      0.00000000	      0.00000000	     43.95346639	    -15.06578781	     43.95346639	     75.04228807	     44.99987985	      0.00000000	      0.00000000
